<svg xmlns="http://www.w3.org/2000/svg" viewBox="0 0 64 64" role="img" aria-label="Boarnerges">
  <rect width="64" height="64" rx="14" fill="oklch(0.985 0.014 96)" />
  <path
    fill="oklch(0.22 0.06 174)"
    d="M16 12h18.3c5.2 0 9.2 1.1 12 3.3 2.8 2.1 4.2 5.1 4.2 8.8 0 2.2-.5 4.1-1.6 5.8a10.7 10.7 0 0 1-4.5 3.8c2.7.8 4.8 2.2 6.2 4.2 1.5 2 2.2 4.4 2.2 7.2 0 4.3-1.5 7.6-4.6 9.9-3 2.3-7.3 3.5-12.9 3.5H16V12Zm12.1 18.6h6.1c2.8 0 4.9-.4 6.2-1.3 1.3-.9 2-2.2 2-4 0-1.9-.7-3.3-2.1-4.1-1.4-.8-3.6-1.2-6.4-1.2h-5.8v10.6Zm0 8.1v11.6h7.1c3 0 5.2-.5 6.7-1.4 1.5-1 2.2-2.5 2.2-4.5 0-2-.7-3.4-2.1-4.3-1.4-.9-3.7-1.4-6.8-1.4h-7.1Z"
  />
  <path
    fill="oklch(0.58 0.15 34)"
    d="M49.4 13.2h6.9L46.5 50.8h-6.9l9.8-37.6Z"
  />
</svg>
